# This file uses centimeters as units for non-parametric coordinates.

mtllib cloud.mtl
g default
v -0.401732 3.836490 0.317911
v -0.134442 3.918619 0.360743
v 0.530812 3.751842 0.220145
v -0.411190 3.790350 -0.233619
v -0.121690 3.806465 -0.428454
v 0.532296 3.738725 -0.222203
v -0.362524 2.966792 -0.450158
v -0.085957 2.895168 -0.742582
v 0.593710 2.983025 -0.211135
v -0.395655 2.996142 0.361749
v -0.131457 2.939833 0.561733
v 0.594827 2.996142 0.181774
v 0.311056 3.831980 -0.331922
v -0.042953 3.363153 -0.891294
v -0.350232 3.528106 -0.618286
v 0.676784 3.626833 -0.262676
v 0.375297 2.915764 -0.405922
v 0.390091 2.939833 0.481762
v -0.134573 3.646199 0.760679
v -0.422296 3.673528 0.422371
v 0.666472 3.652441 0.273557
v 0.310993 3.855111 0.338499
v 0.378151 3.643497 0.703181
v 0.360062 3.510838 -0.651302
v 0.034702 2.997853 0.886994
v 0.282214 2.993260 0.838182
v 0.032692 3.429496 0.979013
v 0.277651 3.429824 0.932756
v 0.381743 3.391847 -0.708069
v 0.595775 3.698447 -0.250127
v 0.545209 3.602744 -0.369077
v 0.743390 3.529177 -0.250407
v -0.309892 3.200213 -0.784240
v -0.022501 3.095207 -1.043541
v -0.054315 2.948030 -0.847365
v -0.345709 3.018755 -0.605814
v 0.401932 3.173310 -0.672651
v 0.385568 2.981518 -0.565870
v 0.146320 2.891443 -0.679686
v 0.781037 3.279177 -0.220360
v 0.656706 3.047406 -0.215037
v 0.515976 2.948447 -0.282330
v -0.479758 2.958882 -0.076513
v -0.124921 2.867141 -0.369188
v -0.127935 2.883488 0.215649
v -0.433719 2.966243 0.226237
v 0.370538 2.872818 -0.250046
v 0.370538 2.883488 0.194535
v 0.133274 2.915820 0.509242
v 0.612391 2.960166 -0.133176
v 0.610660 2.966243 0.080052
v 0.751667 3.653453 0.128074
v 0.750977 3.643109 -0.136325
v -0.533942 3.660517 -0.049773
v -0.497540 3.675840 0.299480
v -0.034574 2.979810 0.806790
v 0.330829 2.977934 0.739816
v -0.036196 3.510883 0.929689
v 0.323939 3.505882 0.873867
v -0.417952 3.065201 0.400195
v -0.183081 3.050687 0.733192
v -0.185004 3.281084 0.830146
v -0.423616 3.311729 0.440125
v 0.007337 3.024569 0.963202
v 0.160540 2.987927 0.867503
v 0.322626 3.023335 0.892443
v 0.334841 3.179526 0.931928
v 0.009571 3.179526 1.013043
v 0.515545 2.966243 0.286378
v 0.660837 3.065201 0.183665
v 0.454127 3.050687 0.596155
v 0.778168 3.311729 0.213524
v 0.476573 3.292553 0.675059
v -0.423614 3.565620 0.440120
v -0.185183 3.537433 0.807491
v -0.132309 3.748492 0.542363
v -0.421280 3.764698 0.376251
v 0.006685 3.360484 1.010220
v 0.321193 3.360484 0.949906
v 0.156602 3.429461 1.005198
v 0.124204 3.660070 0.751284
v 0.334895 3.734271 0.500407
v 0.095914 3.919734 0.366518
v 0.737059 3.561729 0.257794
v 0.514367 3.653453 0.453858
v 0.454677 3.535769 0.704966
v 0.590447 3.716243 0.254440
v 0.449632 3.785299 0.280481
v -0.432257 3.840366 0.209762
v -0.137341 4.019056 0.180122
v -0.137341 4.003503 -0.191992
v -0.441341 3.833570 -0.098526
v 0.298665 3.930076 0.170718
v 0.298665 3.919406 -0.178861
v 0.100487 3.838833 -0.406268
v 0.544322 3.765722 0.125868
v 0.542005 3.759881 -0.130506
v 0.452854 3.767554 -0.276169
v -0.432004 3.662618 -0.335820
v -0.086070 3.594047 -0.645645
v -0.024399 3.278272 -0.998399
v -0.306804 3.406956 -0.778849
v 0.334944 3.645366 -0.504799
v 0.156026 3.370010 -0.882296
v 0.168979 3.025875 0.949571
v 0.175862 3.174874 1.025524
v 0.539688 3.057099 0.359476
v 0.592589 3.311729 0.404876
v 0.167895 3.344087 1.033660
v 0.108495 3.746016 0.554616
v 0.559074 3.561729 0.451751
v 0.475786 3.721364 0.389866
v 0.088366 4.023685 0.182292
v 0.088366 4.009362 -0.193224
v 0.440762 3.822964 0.146412
v 0.439646 3.815853 -0.152154
v 0.130916 3.593227 -0.652903
v 0.168656 3.285423 -0.972138
v 0.491360 3.688236 -0.343905
v 0.592310 3.496624 -0.365397
v 0.176247 3.102358 -1.002712
v 0.162391 2.948926 -0.784705
v 0.617694 3.246624 -0.346971
v 0.542916 3.023534 -0.327916
v 0.128762 2.858997 -0.342090
v 0.127236 2.874229 0.221172
v 0.513192 2.903743 -0.183040
v 0.513192 2.911266 0.134448
v 0.714862 3.057099 0.070485
v 0.717732 3.049576 -0.110998
v 0.860751 3.298708 -0.106894
v 0.860751 3.311729 0.089844
v 0.821880 3.561729 0.115885
v 0.821880 3.548708 -0.127246
v 0.650231 3.712770 -0.131321
v 0.652149 3.720294 0.125579
v -0.573407 3.048497 -0.035727
v -0.532847 3.057099 0.272134
v -0.550742 3.311729 0.320230
v -0.592911 3.287864 -0.057266
v -0.592153 3.535489 -0.059219
v -0.550742 3.567165 0.320230
v -0.485712 3.760285 0.258243
v -0.510297 3.753665 -0.059666
v -0.094593 3.032863 0.896483
v 0.146507 2.957262 0.735072
v 0.400572 3.035544 0.785556
v 0.416658 3.213448 0.835918
v -0.094182 3.209110 0.962822
v -0.094898 3.434409 0.948191
v 0.399040 3.431001 0.860481
v 0.141139 3.544894 0.894237
vt 0.375000 0.250000
vt 0.464030 0.274089
vt 0.625000 0.250000
vt 0.375000 0.500000
vt 0.125000 0.250000
vt 0.463542 0.485270
vt 0.625000 0.500000
vt 0.875000 0.250000
vt 0.375000 0.750000
vt 0.125000 0.000000
vt 0.463542 0.771403
vt 0.625000 0.750000
vt 0.791667 0.000000
vt 0.375000 0.000000
vt 0.375000 1.000000
vt 0.458333 0.000000
vt 0.458333 1.000000
vt 0.708333 0.000000
vt 0.625000 1.000000
vt 0.572917 0.482218
vt 0.463542 0.569539
vt 0.375000 0.541667
vt 0.125000 0.208333
vt 0.625000 0.541667
vt 0.833333 0.208333
vt 0.572917 0.768351
vt 0.625000 0.000000
vt 0.583333 1.000000
vt 0.461719 0.208958
vt 0.356120 0.207357
vt 0.670614 0.207357
vt 0.578532 0.274089
vt 0.597800 0.208958
vt 0.572917 0.560079
vt 0.495370 0.018519
vt 0.587963 0.018519
vt 0.491175 0.196759
vt 0.574798 0.196759
vt 0.541667 0.041667
vt 0.540365 0.119792
vt 0.664063 0.041667
vt 0.658529 0.119792
vt 0.535156 0.182292
vt 0.527344 0.239583
vt 0.646810 0.182292
vt 0.622396 0.234375
vt 0.522135 0.322917
vt 0.520833 0.430664
vt 0.605469 0.317708
vt 0.604167 0.433594
vt 0.520833 0.528320
vt 0.520833 0.603516
vt 0.604167 0.522135
vt 0.604167 0.578125
vt 0.520833 0.666016
vt 0.520833 0.731445
vt 0.604167 0.640625
vt 0.604167 0.717448
vt 0.520833 0.821289
vt 0.520833 0.937500
vt 0.604167 0.816406
vt 0.604167 0.937500
vt 0.726563 0.041667
vt 0.770833 0.041667
vt 0.770833 0.122396
vt 0.722331 0.119792
vt 0.715820 0.182292
vt 0.781250 0.184896
vt 0.802083 0.229167
vt 0.699219 0.229167
vt 0.187500 0.041667
vt 0.307292 0.041667
vt 0.302083 0.119792
vt 0.187500 0.122396
vt 0.187500 0.184896
vt 0.302083 0.182292
vt 0.307292 0.229167
vt 0.187500 0.229167
vt 0.458333 0.041667
vt 0.541667 0.000000
vt 0.625000 0.041667
vt 0.622396 0.119792
vt 0.458333 0.119792
vt 0.458333 0.182292
vt 0.611979 0.182292
vt 0.531250 0.208333
vt 0.361979 0.041667
vt 0.446615 0.041667
vt 0.445313 0.119792
vt 0.354167 0.119792
vt 0.479167 0.041667
vt 0.541667 0.010417
vt 0.604167 0.041667
vt 0.601888 0.119792
vt 0.478841 0.119792
vt 0.666667 0.000000
vt 0.604167 1.000000
vt 0.699219 0.041667
vt 0.634766 0.041667
vt 0.692546 0.119792
vt 0.631429 0.119792
vt 0.354167 0.182292
vt 0.445313 0.182292
vt 0.463867 0.238281
vt 0.361979 0.230469
vt 0.477539 0.182292
vt 0.592773 0.182292
vt 0.532227 0.201823
vt 0.530273 0.216146
vt 0.585612 0.238281
vt 0.524089 0.276042
vt 0.681478 0.182292
vt 0.636312 0.208333
vt 0.620687 0.182292
vt 0.654622 0.230469
vt 0.610352 0.268229
vt 0.375000 0.312500
vt 0.312500 0.250000
vt 0.463867 0.321615
vt 0.463542 0.432129
vt 0.375000 0.437500
vt 0.187500 0.250000
vt 0.574870 0.321615
vt 0.572917 0.430908
vt 0.520833 0.482910
vt 0.625000 0.312500
vt 0.687500 0.250000
vt 0.625000 0.437500
vt 0.812500 0.250000
vt 0.604167 0.485026
vt 0.375000 0.520833
vt 0.125000 0.229167
vt 0.463542 0.530436
vt 0.463542 0.604492
vt 0.375000 0.562500
vt 0.125000 0.187500
vt 0.572917 0.524333
vt 0.520833 0.568115
vt 0.572917 0.592285
vt 0.625000 0.520833
vt 0.854167 0.229167
vt 0.604167 0.551107
vt 0.625000 0.562500
vt 0.812500 0.187500
vt 0.375000 0.625000
vt 0.125000 0.125000
vt 0.463542 0.666992
vt 0.463542 0.731608
vt 0.375000 0.708333
vt 0.125000 0.041667
vt 0.572917 0.654785
vt 0.572917 0.725505
vt 0.520833 0.771973
vt 0.625000 0.625000
vt 0.791667 0.125000
vt 0.625000 0.708333
vt 0.791667 0.041667
vt 0.604167 0.762370
vt 0.375000 0.812500
vt 0.187500 0.000000
vt 0.463542 0.820801
vt 0.463542 0.937500
vt 0.375000 0.937500
vt 0.312500 0.000000
vt 0.572917 0.819580
vt 0.572917 0.937500
vt 0.520833 1.000000
vt 0.541667 0.000000
vt 0.625000 0.812500
vt 0.770833 0.000000
vt 0.625000 0.937500
vt 0.729167 0.000000
vt 0.709229 0.207031
vt 0.791667 0.207682
vt 0.187500 0.207682
vt 0.303385 0.207031
vt 0.479167 0.010417
vt 0.604167 0.010417
vt 0.476563 0.201823
vt 0.587891 0.201823
vn -0.806263 -0.070119 0.587386
vn -0.749152 -0.355868 0.558685
vn -0.784159 -0.380253 0.490410
vn -0.843048 -0.061527 0.534308
vn -0.411805 -0.862978 0.292720
vn -0.251568 -0.936054 0.246001
vn -0.220455 -0.549401 0.805952
vn 0.191097 -0.556282 0.808723
vn 0.220985 -0.192260 0.956139
vn -0.252005 -0.175219 0.951731
vn -0.071012 -0.950624 0.302111
vn 0.048061 -0.955214 0.291988
vn 0.195187 -0.939216 0.282446
vn 0.550594 -0.486642 0.678252
vn 0.617652 -0.160800 0.769838
vn 0.307726 -0.927191 0.213594
vn 0.555272 -0.781367 0.284849
vn 0.810409 -0.385401 0.441251
vn 0.874532 -0.375128 0.307363
vn 0.656082 -0.669678 0.347977
vn 0.735620 -0.434086 0.520032
vn 0.782926 -0.183912 0.594309
vn 0.840812 -0.135034 0.524215
vn 0.932455 -0.068682 0.354697
vn -0.612518 0.540266 0.577004
vn -0.791661 0.121888 0.598679
vn -0.794132 0.164267 0.585125
vn -0.348596 0.728358 0.589894
vn -0.464125 0.663698 0.586594
vn -0.198852 0.789356 0.580839
vn -0.188485 0.801152 0.568004
vn -0.419267 0.759569 0.497262
vn -0.108452 0.512356 0.851898
vn -0.279047 0.104559 0.954568
vn 0.205290 0.085242 0.974982
vn 0.144089 0.527224 0.837421
vn 0.604757 0.081051 0.792275
vn 0.381577 0.502843 0.775595
vn 0.068800 0.856017 0.512349
vn 0.077744 0.847696 0.524755
vn 0.386417 0.778120 0.495188
vn 0.295017 0.836790 0.461246
vn 0.376426 0.798468 0.469842
vn 0.129193 0.811686 0.569628
vn 0.834117 0.148488 0.531225
vn 0.871717 0.220730 0.437480
vn 0.772559 0.126710 0.622171
vn 0.652158 0.577720 0.490846
vn 0.633307 0.637367 0.438959
vn 0.485567 0.781312 0.392144
vn 0.499815 0.796776 0.339608
vn 0.458156 0.856442 0.237906
vn 0.515764 0.795326 0.318505
vn -0.585938 0.789775 -0.181474
vn -0.565168 0.820723 0.083661
vn -0.289487 0.950893 0.109542
vn -0.298472 0.912995 -0.278128
vn -0.277398 0.700426 -0.657613
vn -0.540405 0.640196 -0.545996
vn 0.179298 0.973438 0.142373
vn 0.157348 0.948140 -0.276176
vn 0.467291 0.877339 0.109154
vn 0.451563 0.870176 -0.197193
vn 0.365119 0.735045 -0.571311
vn 0.116258 0.745089 -0.656755
vn 0.561784 0.825227 0.058300
vn 0.445147 0.894873 0.032361
vn 0.445985 0.891084 -0.084069
vn 0.558680 0.821972 -0.110630
vn 0.455083 0.825265 -0.334422
vn 0.506037 0.726964 -0.464166
vn -0.583782 0.606515 -0.539758
vn -0.640886 0.514868 -0.569364
vn -0.182181 0.730666 -0.657980
vn -0.092708 0.755279 -0.648814
vn -0.810517 0.216959 -0.544051
vn -0.337920 0.327908 -0.882206
vn 0.120482 0.718623 -0.684883
vn 0.188924 0.698097 -0.690629
vn 0.357338 0.680528 -0.639681
vn 0.472536 0.601099 -0.644508
vn 0.574532 0.267698 -0.773467
vn 0.772666 0.176976 -0.609644
vn 0.487050 0.645028 -0.588830
vn 0.487357 0.723617 -0.488735
vn 0.599985 0.495473 -0.628112
vn 0.607516 0.476707 -0.635354
vn 0.746462 0.116140 -0.655215
vn 0.703596 0.130695 -0.698478
vn -0.847792 -0.331208 -0.414187
vn -0.843812 -0.137627 -0.518692
vn -0.351887 -0.383999 -0.853651
vn -0.369056 -0.720917 -0.586581
vn -0.237420 -0.940638 -0.242554
vn -0.497643 -0.847025 -0.186818
vn 0.567177 -0.353582 -0.743835
vn 0.488869 -0.713493 -0.501932
vn 0.816262 -0.196151 -0.543361
vn 0.707612 -0.545012 -0.449720
vn 0.345601 -0.908666 -0.234275
vn 0.165005 -0.963854 -0.209186
vn 0.775373 -0.135646 -0.616763
vn 0.739879 -0.162687 -0.652773
vn 0.699572 -0.422839 -0.576027
vn 0.752090 -0.417378 -0.510055
vn 0.634280 -0.661581 -0.399999
vn 0.539583 -0.763981 -0.353812
vn -0.342939 -0.933527 0.104498
vn -0.400094 -0.916116 -0.025617
vn -0.173637 -0.983991 -0.040149
vn -0.147935 -0.985903 0.078175
vn 0.028750 -0.999227 -0.026821
vn 0.004826 -0.996970 0.077635
vn 0.129329 -0.990940 -0.036224
vn 0.126067 -0.988187 0.087139
vn 0.016779 -0.986097 0.165321
vn 0.325343 -0.943997 -0.054964
vn 0.583571 -0.809679 -0.062167
vn 0.585432 -0.803917 0.104820
vn 0.341806 -0.934915 0.095403
vn 0.801379 -0.567804 0.188123
vn 0.808799 -0.570320 -0.143455
vn 0.966039 -0.175949 -0.189237
vn 0.962387 -0.171512 0.210703
vn 0.932124 0.280241 -0.229368
vn 0.936194 0.280696 0.211542
vn 0.696886 0.705124 0.130956
vn 0.695487 0.693270 -0.188878
vn 0.494685 0.860009 -0.125186
vn 0.493603 0.867104 0.066983
vn -0.950498 -0.271361 -0.151383
vn -0.909591 -0.294781 0.292829
vn -0.939623 -0.051598 0.338298
vn -0.978028 -0.048496 -0.202752
vn -0.970702 0.124206 -0.205696
vn -0.944688 0.134417 0.299161
vn -0.933723 0.310367 -0.178418
vn -0.905659 0.354209 0.233061
vn -0.901061 0.405457 0.153926
vn -0.914126 0.385619 -0.125188
vn -0.227005 -0.944023 0.239352
vn -0.708378 -0.473291 0.523638
vn 0.023895 -0.982158 0.186532
vn 0.303872 -0.931206 0.201287
vn 0.852583 -0.398816 0.337711
vn 0.897817 -0.091374 0.430785
vn 0.830903 0.172557 0.528985
vn -0.728999 -0.103240 0.676684
vn -0.669479 0.185781 0.719224
vn -0.165791 0.677114 0.716959
vn 0.365207 0.646792 0.669540
vn 0.097913 0.733264 0.672857
s 1
g pCube2
usemtl initialShadingGroup
f 63/90/1 60/87/2 61/88/3 62/89/4
f 60/87/2 10/14/5 11/16/6 61/88/3
f 64/91/7 105/39/8 106/40/9 68/95/10
f 64/91/7 25/35/11 65/92/12 105/39/8
f 105/39/8 65/92/12 26/36/13 66/93/14
f 105/39/8 66/93/14 67/94/15 106/40/9
f 18/27/16 69/96/17 107/41/18 71/99/19
f 69/96/17 12/18/20 70/98/21 107/41/18
f 107/41/18 70/98/21 72/100/22 108/42/23
f 71/99/19 107/41/18 108/42/23 73/101/24
f 20/30/25 74/102/26 75/103/27 19/29/28
f 74/102/26 63/90/1 62/89/4 75/103/27
f 77/105/29 20/30/25 19/29/28 76/104/30
f 77/105/29 76/104/30 2/2/31 1/1/32
f 27/37/33 78/106/34 109/43/35 80/108/36
f 106/40/9 109/43/35 78/106/34 68/95/10
f 67/94/15 79/107/37 109/43/35 106/40/9
f 80/108/36 109/43/35 79/107/37 28/38/38
f 19/29/28 81/109/39 110/44/40 76/104/30
f 81/109/39 23/33/41 82/110/42 110/44/40
f 110/44/40 82/110/42 22/32/43 83/111/44
f 76/104/30 110/44/40 83/111/44 2/2/31
f 108/42/23 111/45/45 86/114/46 73/101/24
f 72/100/22 84/112/47 111/45/45 108/42/23
f 111/45/45 84/112/47 21/31/48 85/113/49
f 86/114/46 111/45/45 85/113/49 23/33/41
f 23/33/41 85/113/49 112/46/50 82/110/42
f 85/113/49 21/31/48 87/115/51 112/46/50
f 112/46/50 87/115/51 3/3/52 88/116/53
f 82/110/42 112/46/50 88/116/53 22/32/43
f 92/121/54 89/117/55 90/119/56 91/120/57
f 89/117/55 1/1/32 2/2/31 90/119/56
f 92/121/54 91/120/57 5/6/58 4/4/59
f 91/120/57 90/119/56 113/47/60 114/48/61
f 90/119/56 2/2/31 83/111/44 113/47/60
f 113/47/60 83/111/44 22/32/43 93/123/62
f 113/47/60 93/123/62 94/124/63 114/48/61
f 114/48/61 94/124/63 13/20/64 95/125/65
f 91/120/57 114/48/61 95/125/65 5/6/58
f 22/32/43 88/116/53 115/49/66 93/123/62
f 88/116/53 3/3/52 96/126/67 115/49/66
f 115/49/66 96/126/67 97/128/68 116/50/69
f 93/123/62 115/49/66 116/50/69 94/124/63
f 116/50/69 97/128/68 6/7/70 98/130/71
f 94/124/63 116/50/69 98/130/71 13/20/64
f 15/22/72 99/131/73 100/133/74 14/21/75
f 99/131/73 4/4/59 5/6/58 100/133/74
f 102/135/76 15/22/72 14/21/75 101/134/77
f 14/21/75 100/133/74 117/51/78 104/138/79
f 100/133/74 5/6/58 95/125/65 117/51/78
f 117/51/78 95/125/65 13/20/64 103/137/80
f 104/138/79 117/51/78 103/137/80 24/34/81
f 14/21/75 104/138/79 118/52/82 101/134/77
f 104/138/79 24/34/81 29/139/83 118/52/82
f 13/20/64 98/130/71 119/53/84 103/137/80
f 98/130/71 6/7/70 30/140/85 119/53/84
f 119/53/84 30/140/85 16/24/86 31/142/87
f 103/137/80 119/53/84 31/142/87 24/34/81
f 24/34/81 31/142/87 120/54/88 29/139/83
f 31/142/87 16/24/86 32/143/89 120/54/88
f 36/149/90 33/145/91 34/147/92 35/148/93
f 33/145/91 102/135/76 101/134/77 34/147/92
f 36/149/90 35/148/93 8/11/94 7/9/95
f 35/148/93 34/147/92 121/55/96 122/56/97
f 118/52/82 121/55/96 34/147/92 101/134/77
f 29/139/83 37/151/98 121/55/96 118/52/82
f 121/55/96 37/151/98 38/152/99 122/56/97
f 122/56/97 38/152/99 17/26/100 39/153/101
f 35/148/93 122/56/97 39/153/101 8/11/94
f 120/54/88 123/57/102 37/151/98 29/139/83
f 40/154/103 123/57/102 120/54/88 32/143/89
f 123/57/102 40/154/103 41/156/104 124/58/105
f 37/151/98 123/57/102 124/58/105 38/152/99
f 124/58/105 41/156/104 9/12/106 42/158/107
f 38/152/99 124/58/105 42/158/107 17/26/100
f 46/163/108 43/159/109 44/161/110 45/162/111
f 43/159/109 7/9/95 8/11/94 44/161/110
f 46/163/108 45/162/111 11/17/6 10/15/5
f 45/162/111 44/161/110 125/59/112 126/60/113
f 44/161/110 8/11/94 39/153/101 125/59/112
f 125/59/112 39/153/101 17/26/100 47/165/114
f 125/59/112 47/165/114 48/166/115 126/60/113
f 126/60/113 48/166/115 18/28/16 49/167/116
f 45/162/111 126/60/113 49/167/116 11/17/6
f 17/26/100 42/158/107 127/61/117 47/165/114
f 42/158/107 9/12/106 50/169/118 127/61/117
f 127/61/117 50/169/118 51/171/119 128/62/120
f 47/165/114 127/61/117 128/62/120 48/166/115
f 128/62/120 51/171/119 12/19/20 69/97/17
f 48/166/115 128/62/120 69/97/17 18/28/16
f 12/18/20 51/172/119 129/63/121 70/98/21
f 129/63/121 51/172/119 50/170/118 130/64/122
f 129/63/121 130/64/122 131/65/123 132/66/124
f 72/100/22 70/98/21 129/63/121 132/66/124
f 50/170/118 9/13/106 41/157/104 130/64/122
f 130/64/122 41/157/104 40/155/103 131/65/123
f 131/65/123 40/155/103 32/144/89 134/68/125
f 132/66/124 131/65/123 134/68/125 133/67/126
f 72/100/22 132/66/124 133/67/126 84/112/47
f 52/173/127 133/67/126 134/68/125 53/174/128
f 84/112/47 133/67/126 52/173/127 21/31/48
f 134/68/125 32/144/89 16/25/86 53/174/128
f 52/173/127 53/174/128 135/69/129 136/70/130
f 53/174/128 16/25/86 30/141/85 135/69/129
f 135/69/129 30/141/85 6/8/70 97/129/68
f 135/69/129 97/129/68 96/127/67 136/70/130
f 21/31/48 52/173/127 136/70/130 87/115/51
f 87/115/51 136/70/130 96/127/67 3/3/52
f 7/10/95 43/160/109 137/71/131 36/150/90
f 137/71/131 43/160/109 46/164/108 138/72/132
f 137/71/131 138/72/132 139/73/133 140/74/134
f 33/146/91 36/150/90 137/71/131 140/74/134
f 46/164/108 10/14/5 60/87/2 138/72/132
f 138/72/132 60/87/2 63/90/1 139/73/133
f 140/74/134 141/75/135 102/136/76 33/146/91
f 139/73/133 142/76/136 141/75/135 140/74/134
f 54/175/137 141/75/135 142/76/136 55/176/138
f 102/136/76 141/75/135 54/175/137 15/23/72
f 63/90/1 74/102/26 142/76/136 139/73/133
f 142/76/136 74/102/26 20/30/25 55/176/138
f 54/175/137 55/176/138 143/77/139 144/78/140
f 55/176/138 20/30/25 77/105/29 143/77/139
f 143/77/139 77/105/29 1/1/32 89/118/55
f 143/77/139 89/118/55 92/122/54 144/78/140
f 15/23/72 54/175/137 144/78/140 99/132/73
f 99/132/73 144/78/140 92/122/54 4/5/59
f 61/88/3 11/16/6 56/177/141 145/79/142
f 145/79/142 56/177/141 25/35/11 64/91/7
f 11/16/6 49/168/116 146/80/143 56/177/141
f 49/168/116 18/27/16 57/178/144 146/80/143
f 146/80/143 57/178/144 26/36/13 65/92/12
f 56/177/141 146/80/143 65/92/12 25/35/11
f 18/27/16 71/99/19 147/81/145 57/178/144
f 147/81/145 71/99/19 73/101/24 148/82/146
f 66/93/14 147/81/145 148/82/146 67/94/15
f 57/178/144 147/81/145 66/93/14 26/36/13
f 148/82/146 73/101/24 86/114/46 151/85/147
f 67/94/15 148/82/146 151/85/147 79/107/37
f 145/79/142 149/83/148 62/89/4 61/88/3
f 64/91/7 68/95/10 149/83/148 145/79/142
f 19/29/28 75/103/27 150/84/149 58/179/150
f 149/83/148 150/84/149 75/103/27 62/89/4
f 68/95/10 78/106/34 150/84/149 149/83/148
f 58/179/150 150/84/149 78/106/34 27/37/33
f 86/114/46 23/33/41 59/180/151 151/85/147
f 151/85/147 59/180/151 28/38/38 79/107/37
f 23/33/41 81/109/39 152/86/152 59/180/151
f 81/109/39 19/29/28 58/179/150 152/86/152
f 152/86/152 58/179/150 27/37/33 80/108/36
f 59/180/151 152/86/152 80/108/36 28/38/38
