# This file uses centimeters as units for non-parametric coordinates.

mtllib TaxiHood.mtl
g default
v 0.010696 0.587006 0.340204
v 0.010696 0.515108 0.932235
v 0.010696 0.538668 0.859461
v 0.010696 0.612325 0.311443
v 0.566008 0.587006 0.340204
v 0.446284 0.515108 0.835840
v 0.490752 0.538668 0.763066
v 0.531463 0.612325 0.311443
v 0.010696 0.446262 1.014625
v 0.446284 0.446262 0.918230
v 0.290069 0.446262 1.014625
v 0.290062 0.515108 0.932235
v 0.289881 0.538668 0.859461
v 0.289881 0.587006 0.340204
v 0.272608 0.612325 0.311443
v 0.172614 0.446262 1.014625
v 0.010696 0.544950 0.628218
v 0.289881 0.544950 0.628218
v 0.499601 0.544950 0.702598
v -0.544617 0.587006 0.340204
v -0.424891 0.515108 0.835840
v -0.469360 0.538668 0.763066
v -0.510071 0.612325 0.311443
v -0.424891 0.446262 0.918230
v -0.268677 0.446262 1.014625
v -0.268670 0.515108 0.932235
v -0.268488 0.538668 0.859461
v -0.268488 0.587006 0.340204
v -0.251216 0.612325 0.311443
v -0.151221 0.446262 1.014625
v -0.268488 0.544950 0.628218
v -0.478209 0.544950 0.702598
vt 0.912809 0.959636
vt 0.912809 0.543278
vt 1.321096 0.959635
vt 1.222906 0.442021
vt 0.913088 -0.039709
vt 1.144070 0.091518
vt 0.913078 0.112184
vt 1.144070 0.243411
vt 1.209822 0.356078
vt 0.912809 0.224851
vt 1.270018 1.013402
vt 0.887269 1.013402
vt 0.500001 -0.039709
vt 0.739416 -0.039709
vt 0.500001 0.112184
vt 0.500001 0.224851
vt 0.500001 0.959636
vt 0.500001 0.543278
vt 0.500000 1.013402
vt -0.222904 0.442021
vt 0.087193 0.543278
vt -0.321096 0.959635
vt 0.087193 0.959636
vt 0.086915 -0.039709
vt 0.086924 0.112184
vt -0.144068 0.091518
vt -0.144068 0.243411
vt 0.087193 0.224851
vt -0.209820 0.356078
vt 0.112733 1.013402
vt -0.270017 1.013402
vt 0.260586 -0.039709
vn 0.000001 0.989506 0.144490
vn -0.007224 0.995300 0.096573
vn -0.016124 0.991472 0.129316
vn -0.037785 0.993591 0.106537
vn 0.192081 0.753078 0.629268
vn 0.367908 0.713543 0.596238
vn 0.195818 0.752509 0.628797
vn 0.367907 0.713539 0.596243
vn 0.021866 0.996362 0.082374
vn 0.024911 0.994032 0.106203
vn 0.194528 0.899776 0.390593
vn 0.051679 0.950153 0.307472
vn 0.000002 0.750603 0.660753
vn 0.000002 0.750603 0.660753
vn 0.000000 0.750610 0.660746
vn 0.000000 0.750610 0.660745
vn 0.000000 0.767359 0.641217
vn 0.000000 0.767359 0.641217
vn 0.000000 0.767359 0.641217
vn 0.000000 0.995217 0.097689
vn 0.000000 0.951386 0.308001
vn 0.000000 0.989506 0.144490
vn 0.000000 0.995695 0.092691
vn 0.000000 0.750611 0.660744
vn 0.000000 0.750611 0.660744
vn 0.037785 0.993591 0.106537
vn 0.007224 0.995300 0.096573
vn 0.016124 0.991472 0.129315
vn -0.000001 0.989506 0.144490
vn -0.192081 0.753078 0.629268
vn -0.195818 0.752509 0.628797
vn -0.367909 0.713543 0.596238
vn -0.367907 0.713539 0.596244
vn -0.051679 0.950153 0.307472
vn -0.024911 0.994032 0.106203
vn -0.194528 0.899775 0.390594
vn -0.021866 0.996362 0.082374
vn 0.000000 0.750611 0.660744
vn -0.000002 0.750603 0.660754
vn -0.000000 0.750611 0.660745
vn -0.000002 0.750602 0.660755
vn 0.000000 0.767359 0.641217
s 1
g polySurface266 polySurface8 polySurface6
usemtl initialShadingGroup
f 14/1/1 18/2/2 5/3/3
f 5/3/3 18/2/2 19/4/4
s 2
f 11/5/5 10/6/6 12/7/7
f 12/7/7 10/6/6 6/8/8
s 1
f 7/9/9 13/10/10 6/8/11
f 6/8/11 13/10/10 12/7/12
s 4
f 5/3/13 8/11/14 14/1/15
f 14/1/15 8/11/14 15/12/16
s 2
f 9/13/17 16/14/18 2/15/19
f 2/15/19 16/14/18 12/7/7
f 16/14/18 11/5/5 12/7/7
s 1
f 3/16/20 2/15/21 13/10/10
f 13/10/10 2/15/21 12/7/12
f 14/1/1 1/17/22 18/2/2
f 18/2/2 1/17/22 17/18/23
s 4
f 14/1/15 15/12/16 1/17/24
f 1/17/24 15/12/16 4/19/25
s 1
f 18/2/2 17/18/23 13/10/10
f 13/10/10 17/18/23 3/16/20
f 19/4/4 18/2/2 7/9/9
f 7/9/9 18/2/2 13/10/10
f 32/20/26 31/21/27 20/22/28
f 20/22/28 31/21/27 28/23/29
s 2
f 25/24/30 26/25/31 24/26/32
f 24/26/32 26/25/31 21/27/33
s 1
f 26/25/34 27/28/35 21/27/36
f 21/27/36 27/28/35 22/29/37
s 4
f 29/30/38 23/31/39 28/23/40
f 28/23/40 23/31/39 20/22/41
s 2
f 9/13/17 2/15/19 30/32/42
f 2/15/19 26/25/31 30/32/42
f 26/25/31 25/24/30 30/32/42
s 1
f 26/25/34 2/15/21 27/28/35
f 27/28/35 2/15/21 3/16/20
f 28/23/29 31/21/27 1/17/22
f 1/17/22 31/21/27 17/18/23
s 4
f 4/19/25 29/30/38 1/17/24
f 1/17/24 29/30/38 28/23/40
s 1
f 31/21/27 27/28/35 17/18/23
f 17/18/23 27/28/35 3/16/20
f 32/20/26 22/29/37 31/21/27
f 31/21/27 22/29/37 27/28/35
