# This file uses centimeters as units for non-parametric coordinates.

mtllib TaxiHood.mtl
g default
v -0.005584 0.574415 0.383504
v -0.005584 0.502517 0.975535
v -0.005584 0.526077 0.902761
v -0.005584 0.599734 0.354743
v 0.549728 0.574415 0.383504
v 0.430004 0.502517 0.879140
v 0.474472 0.526077 0.806366
v 0.515183 0.599734 0.354743
v -0.005584 0.433671 1.057925
v 0.430004 0.433671 0.961530
v 0.273789 0.433671 1.057925
v 0.273782 0.502517 0.975535
v 0.273601 0.526077 0.902761
v 0.273601 0.574415 0.383504
v 0.256328 0.599734 0.354743
v 0.156334 0.433671 1.057925
v -0.005584 0.532359 0.671518
v 0.273601 0.532359 0.671518
v 0.483321 0.532359 0.745899
v -0.560897 0.574415 0.383504
v -0.441171 0.502517 0.879140
v -0.485640 0.526077 0.806366
v -0.526352 0.599734 0.354743
v -0.441171 0.433671 0.961530
v -0.284957 0.433671 1.057925
v -0.284950 0.502517 0.975535
v -0.284768 0.526077 0.902761
v -0.284768 0.574415 0.383504
v -0.267496 0.599734 0.354743
v -0.167502 0.433671 1.057925
v -0.284768 0.532359 0.671518
v -0.494489 0.532359 0.745899
vt 0.671660 0.921492
vt 0.671660 0.549502
vt 0.843342 0.921492
vt 0.842803 0.459034
vt 0.845339 0.028637
vt 0.842856 0.145880
vt 0.671773 0.164345
vt 0.844365 0.281588
vt 0.844847 0.382249
vt 0.671660 0.265006
vt 0.842993 0.969529
vt 0.660921 0.969529
vt 0.498077 0.028637
vt 0.598749 0.028637
vt 0.498077 0.164345
vt 0.498077 0.265006
vt 0.498077 0.921492
vt 0.498077 0.549502
vt 0.498077 0.969529
vt 0.160897 0.459034
vt 0.324494 0.549502
vt 0.158848 0.921492
vt 0.324494 0.921492
vt 0.161380 0.028637
vt 0.324381 0.164345
vt 0.162353 0.145880
vt 0.159335 0.281588
vt 0.324494 0.265006
vt 0.157344 0.382249
vt 0.335233 0.969529
vt 0.156179 0.969529
vt 0.397405 0.028637
vn 0.000001 0.989506 0.144490
vn -0.007224 0.995300 0.096573
vn -0.016124 0.991472 0.129316
vn -0.037785 0.993591 0.106537
vn 0.192081 0.753078 0.629268
vn 0.367908 0.713543 0.596238
vn 0.195818 0.752509 0.628797
vn 0.367907 0.713539 0.596243
vn 0.021866 0.996362 0.082374
vn 0.024911 0.994032 0.106203
vn 0.194528 0.899776 0.390593
vn 0.051679 0.950153 0.307472
vn 0.000002 0.750603 0.660753
vn 0.000002 0.750603 0.660753
vn 0.000000 0.750610 0.660746
vn 0.000000 0.750610 0.660745
vn 0.000000 0.767359 0.641217
vn 0.000000 0.767359 0.641217
vn 0.000000 0.767359 0.641217
vn 0.000000 0.995217 0.097689
vn 0.000000 0.951386 0.308001
vn 0.000000 0.989506 0.144490
vn 0.000000 0.995695 0.092691
vn 0.000000 0.750611 0.660744
vn 0.000000 0.750611 0.660744
vn 0.037785 0.993591 0.106537
vn 0.007224 0.995300 0.096573
vn 0.016124 0.991472 0.129315
vn -0.000001 0.989506 0.144490
vn -0.192081 0.753078 0.629268
vn -0.195818 0.752509 0.628797
vn -0.367909 0.713543 0.596238
vn -0.367907 0.713539 0.596244
vn -0.051679 0.950153 0.307472
vn -0.024911 0.994032 0.106203
vn -0.194528 0.899775 0.390594
vn -0.021866 0.996362 0.082374
vn 0.000000 0.750611 0.660744
vn -0.000002 0.750603 0.660754
vn -0.000000 0.750611 0.660745
vn -0.000002 0.750602 0.660755
vn 0.000000 0.767359 0.641217
s 1
g polySurface266 polySurface8 polySurface6
usemtl initialShadingGroup
f 14/1/1 18/2/2 5/3/3
f 5/3/3 18/2/2 19/4/4
s 2
f 11/5/5 10/6/6 12/7/7
f 12/7/7 10/6/6 6/8/8
s 1
f 7/9/9 13/10/10 6/8/11
f 6/8/11 13/10/10 12/7/12
s 4
f 5/3/13 8/11/14 14/1/15
f 14/1/15 8/11/14 15/12/16
s 2
f 9/13/17 16/14/18 2/15/19
f 2/15/19 16/14/18 12/7/7
f 16/14/18 11/5/5 12/7/7
s 1
f 3/16/20 2/15/21 13/10/10
f 13/10/10 2/15/21 12/7/12
f 14/1/1 1/17/22 18/2/2
f 18/2/2 1/17/22 17/18/23
s 4
f 14/1/15 15/12/16 1/17/24
f 1/17/24 15/12/16 4/19/25
s 1
f 18/2/2 17/18/23 13/10/10
f 13/10/10 17/18/23 3/16/20
f 19/4/4 18/2/2 7/9/9
f 7/9/9 18/2/2 13/10/10
f 32/20/26 31/21/27 20/22/28
f 20/22/28 31/21/27 28/23/29
s 2
f 25/24/30 26/25/31 24/26/32
f 24/26/32 26/25/31 21/27/33
s 1
f 26/25/34 27/28/35 21/27/36
f 21/27/36 27/28/35 22/29/37
s 4
f 29/30/38 23/31/39 28/23/40
f 28/23/40 23/31/39 20/22/41
s 2
f 9/13/17 2/15/19 30/32/42
f 2/15/19 26/25/31 30/32/42
f 26/25/31 25/24/30 30/32/42
s 1
f 26/25/34 2/15/21 27/28/35
f 27/28/35 2/15/21 3/16/20
f 28/23/29 31/21/27 1/17/22
f 1/17/22 31/21/27 17/18/23
s 4
f 4/19/25 29/30/38 1/17/24
f 1/17/24 29/30/38 28/23/40
s 1
f 31/21/27 27/28/35 17/18/23
f 17/18/23 27/28/35 3/16/20
f 32/20/26 22/29/37 31/21/27
f 31/21/27 22/29/37 27/28/35
