# This file uses centimeters as units for non-parametric coordinates.

mtllib TruckHood.mtl
g default
v -0.252818 0.881479 1.111408
v 0.019347 0.881479 1.111408
v 0.291512 0.881479 1.111408
v -0.252818 0.890541 1.062371
v 0.019347 0.890541 1.062371
v 0.291512 0.890541 1.062371
v 0.291512 0.911978 0.940186
v 0.291512 0.926370 0.874395
v 0.019347 0.911978 0.940186
v 0.019347 0.926370 0.874395
v -0.252818 0.911978 0.940186
v -0.252818 0.926370 0.874395
v 0.291512 0.939856 0.822677
v 0.019347 0.939856 0.822677
v -0.252818 0.939856 0.822677
v 0.291512 0.899603 1.004413
v 0.019347 0.899603 1.004413
v -0.252818 0.899603 1.004413
v 0.168485 0.881479 1.111408
v 0.168485 0.890541 1.062371
v 0.168485 0.899603 1.004413
v 0.168485 0.911978 0.940186
v 0.168485 0.926370 0.874395
v 0.168485 0.939856 0.822677
v -0.124624 0.881479 1.111408
v -0.124624 0.890541 1.062371
v -0.124624 0.899603 1.004413
v -0.124624 0.911978 0.940186
v -0.124624 0.926370 0.874395
v -0.124624 0.939856 0.822677
v -0.360754 0.842210 1.331642
v -0.252818 0.819555 1.433285
v -0.470993 0.881479 1.111408
v -0.124624 0.819555 1.433285
v 0.019347 0.819555 1.433285
v 0.168485 0.819555 1.433285
v 0.291512 0.819555 1.433285
v 0.399449 0.842210 1.331642
v 0.509687 0.881479 1.111408
v -0.480411 0.890541 1.062371
v 0.519106 0.890541 1.062371
v 0.537131 0.911978 0.940186
v 0.546837 0.926370 0.874395
v -0.508142 0.926370 0.874395
v -0.498436 0.911978 0.940186
v 0.555156 0.939856 0.822677
v -0.516462 0.939856 0.822677
v 0.563677 0.963511 0.767255
v 0.291512 0.963511 0.767255
v 0.168485 0.963511 0.767255
v 0.019347 0.963511 0.767255
v -0.124624 0.963511 0.767255
v -0.252818 0.963511 0.767255
v -0.524983 0.963511 0.767255
v 0.527656 0.899603 1.004413
v -0.488962 0.899603 1.004413
vt 0.157781 0.151063
vt 0.189462 0.151063
vt 0.189462 0.166903
vt 0.157781 0.166903
vt 0.204384 0.151063
vt 0.204384 0.166903
vt 0.221142 0.151063
vt 0.238502 0.151063
vt 0.238502 0.166903
vt 0.221142 0.166903
vt 0.252823 0.151063
vt 0.284503 0.151063
vt 0.284503 0.166903
vt 0.252823 0.166903
vt 0.189462 0.169667
vt 0.157781 0.169667
vt 0.204384 0.169667
vt 0.238502 0.169667
vt 0.221142 0.169667
vt 0.284503 0.169667
vt 0.252823 0.169667
vt 0.252823 0.174955
vt 0.284503 0.174955
vt 0.284503 0.177803
vt 0.252823 0.177803
vt 0.221142 0.174955
vt 0.238502 0.174955
vt 0.238502 0.177803
vt 0.221142 0.177803
vt 0.189462 0.174955
vt 0.204384 0.174955
vt 0.204384 0.177803
vt 0.189462 0.177803
vt 0.157781 0.174955
vt 0.157781 0.177803
vt 0.284503 0.180244
vt 0.252823 0.180244
vt 0.238502 0.180244
vt 0.221142 0.180244
vt 0.204384 0.180244
vt 0.189462 0.180244
vt 0.157781 0.180244
vt 0.284503 0.182744
vt 0.252823 0.182744
vt 0.238502 0.182744
vt 0.221142 0.182744
vt 0.204384 0.182744
vt 0.189462 0.182744
vt 0.157781 0.182744
vt 0.252823 0.172175
vt 0.284503 0.172175
vt 0.221142 0.172175
vt 0.238502 0.172175
vt 0.189462 0.172175
vt 0.204384 0.172175
vt 0.157781 0.172175
vn 0.011854 0.983384 0.181153
vn 0.003471 0.982420 0.186649
vn 0.004910 0.982826 0.184467
vn 0.008501 0.983388 0.181317
vn 0.000000 0.981993 0.188920
vn 0.000000 0.982175 0.187970
vn 0.000000 0.981992 0.188920
vn 0.000000 0.981993 0.188920
vn 0.000000 0.982175 0.187970
vn 0.000000 0.982175 0.187970
vn -0.003573 0.982433 0.186583
vn -0.011854 0.983383 0.181153
vn -0.008501 0.983388 0.181317
vn -0.005007 0.982839 0.184399
vn 0.000000 0.985984 0.166841
vn 0.000000 0.986219 0.165445
vn 0.000000 0.985955 0.167012
vn 0.000000 0.985955 0.167012
vn 0.000000 0.985955 0.167012
vn 0.000000 0.986219 0.165445
vn 0.000000 0.985984 0.166838
vn 0.000000 0.979426 0.201802
vn 0.000000 0.979228 0.202763
vn 0.000000 0.972612 0.232434
vn 0.000000 0.972939 0.231061
vn 0.000000 0.979459 0.201642
vn 0.000000 0.979459 0.201642
vn 0.000000 0.972993 0.230833
vn 0.000000 0.972993 0.230833
vn 0.000000 0.979427 0.201799
vn 0.000000 0.979459 0.201642
vn 0.000000 0.972993 0.230833
vn 0.000000 0.972940 0.231057
vn 0.000000 0.979228 0.202763
vn 0.000000 0.972612 0.232433
vn 0.000000 0.943213 0.332188
vn 0.000000 0.944573 0.328301
vn 0.000000 0.944837 0.327540
vn 0.000000 0.944837 0.327540
vn 0.000000 0.944837 0.327540
vn 0.000000 0.944577 0.328291
vn 0.000000 0.943213 0.332188
vn 0.000000 0.919727 0.392559
vn 0.000000 0.919727 0.392559
vn 0.000000 0.919727 0.392559
vn 0.000000 0.919727 0.392559
vn 0.000000 0.919727 0.392559
vn 0.000000 0.919727 0.392559
vn 0.000000 0.919727 0.392559
vn 0.000000 0.984917 0.173026
vn 0.000000 0.984642 0.174583
vn 0.000000 0.984955 0.172809
vn 0.000000 0.984955 0.172809
vn 0.000000 0.984918 0.173023
vn 0.000000 0.984955 0.172809
vn 0.000000 0.984642 0.174583
s 1
g pasted__polySurface268 pasted__pCube16 group19
usemtl initialShadingGroup
f 31/1/1 32/2/2 1/3/3 33/4/4
f 32/2/2 34/5/5 25/6/6 1/3/3
f 35/7/7 36/8/8 19/9/9 2/10/10
f 37/11/11 38/12/12 39/13/13 3/14/14
f 33/4/4 1/3/3 4/15/15 40/16/16
f 1/3/3 25/6/6 26/17/17 4/15/15
f 2/10/10 19/9/9 20/18/18 5/19/19
f 3/14/14 39/13/13 41/20/20 6/21/21
f 7/22/22 42/23/23 43/24/24 8/25/25
f 9/26/26 22/27/27 23/28/28 10/29/29
f 11/30/30 28/31/31 29/32/32 12/33/33
f 45/34/34 11/30/30 12/33/33 44/35/35
f 8/25/25 43/24/24 46/36/36 13/37/37
f 10/29/29 23/28/28 24/38/38 14/39/39
f 12/33/33 29/32/32 30/40/40 15/41/41
f 44/35/35 12/33/33 15/41/41 47/42/42
f 13/37/37 46/36/36 48/43/43 49/44/44
f 14/39/39 24/38/38 50/45/45 51/46/46
f 15/41/41 30/40/40 52/47/47 53/48/48
f 47/42/42 15/41/41 53/48/48 54/49/49
f 16/50/50 55/51/51 42/23/23 7/22/22
f 17/52/52 21/53/53 22/27/27 9/26/26
f 18/54/54 27/55/55 28/31/31 11/30/30
f 56/56/56 18/54/54 11/30/30 45/34/34
f 6/21/21 41/20/20 55/51/51 16/50/50
f 5/19/19 20/18/18 21/53/53 17/52/52
f 4/15/15 26/17/17 27/55/55 18/54/54
f 40/16/16 4/15/15 18/54/54 56/56/56
f 19/9/9 36/8/8 37/11/11 3/14/14
f 20/18/18 19/9/9 3/14/14 6/21/21
f 21/53/53 20/18/18 6/21/21 16/50/50
f 22/27/27 21/53/53 16/50/50 7/22/22
f 23/28/28 22/27/27 7/22/22 8/25/25
f 24/38/38 23/28/28 8/25/25 13/37/37
f 50/45/45 24/38/38 13/37/37 49/44/44
f 25/6/6 34/5/5 35/7/7 2/10/10
f 26/17/17 25/6/6 2/10/10 5/19/19
f 27/55/55 26/17/17 5/19/19 17/52/52
f 28/31/31 27/55/55 17/52/52 9/26/26
f 29/32/32 28/31/31 9/26/26 10/29/29
f 30/40/40 29/32/32 10/29/29 14/39/39
f 52/47/47 30/40/40 14/39/39 51/46/46
