# This file uses centimeters as units for non-parametric coordinates.

mtllib Wall.mtl
g default
v -0.500000 -50.000000 50.000000
v 0.500000 -50.000000 50.000000
v -0.500000 50.000000 50.000000
v 0.500000 50.000000 50.000000
v -0.500000 50.000000 -50.000000
v 0.500000 50.000000 -50.000000
v -0.500000 -50.000000 -50.000000
v 0.500000 -50.000000 -50.000000
vt 0.023976 0.027683
vt 0.162841 0.027683
vt 0.162841 0.166549
vt 0.023976 0.166549
vt 0.023976 0.166549
vt 0.023976 0.027683
vt 0.162841 0.027683
vt 0.162841 0.166549
vt 0.023976 0.166549
vt 0.023976 0.027683
vt 0.162841 0.027683
vt 0.162841 0.166549
vt 0.023976 0.027683
vt 0.162841 0.027683
vt 0.162841 0.166549
vt 0.023976 0.166549
vt 0.152016 0.230659
vt 0.870867 0.230659
vt 0.870867 0.949512
vt 0.152016 0.949512
vt 0.023976 0.027683
vt 0.162841 0.027683
vt 0.162841 0.166549
vt 0.023976 0.166549
vn 0.000000 0.000000 1.000000
vn 0.000000 0.000000 1.000000
vn 0.000000 0.000000 1.000000
vn 0.000000 0.000000 1.000000
vn 0.000000 1.000000 0.000000
vn 0.000000 1.000000 0.000000
vn 0.000000 1.000000 0.000000
vn 0.000000 1.000000 0.000000
vn 0.000000 0.000000 -1.000000
vn 0.000000 0.000000 -1.000000
vn 0.000000 0.000000 -1.000000
vn 0.000000 0.000000 -1.000000
vn 0.000000 -1.000000 0.000000
vn 0.000000 -1.000000 0.000000
vn 0.000000 -1.000000 0.000000
vn 0.000000 -1.000000 0.000000
vn 1.000000 0.000000 0.000000
vn 1.000000 0.000000 0.000000
vn 1.000000 0.000000 0.000000
vn 1.000000 0.000000 0.000000
vn -1.000000 0.000000 0.000000
vn -1.000000 0.000000 0.000000
vn -1.000000 0.000000 0.000000
vn -1.000000 0.000000 0.000000
s off
g Wall:pCube1
usemtl initialShadingGroup
f 1/1/1 2/2/2 4/3/3 3/4/4
f 3/5/5 4/6/6 6/7/7 5/8/8
f 5/9/9 6/10/10 8/11/11 7/12/12
f 7/13/13 8/14/14 2/15/15 1/16/16
f 2/17/17 8/18/18 6/19/19 4/20/20
f 7/21/21 1/22/22 3/23/23 5/24/24
