# This file uses centimeters as units for non-parametric coordinates.

mtllib ARROW.mtl
g default
v -0.482330 0.642142 2.585810
v -0.847459 0.642142 2.585810
v -0.482330 0.567345 2.616630
v -0.847459 0.567345 2.616630
v -0.842815 0.679481 2.570424
v -0.842815 0.530006 2.632015
v -1.092927 0.604747 2.601218
vt 0.079951 0.071286
vt 0.543828 0.071286
vt 0.079951 0.659985
vt 0.543828 0.659985
vt 0.079951 0.071286
vt 0.543828 0.365621
vt 0.079951 0.659985
vn 0.000000 0.380973 0.924586
vn 0.000000 0.380973 0.924586
vn 0.000000 0.380973 0.924586
vn 0.000000 0.380973 0.924586
vn 0.000000 0.380973 0.924586
vn 0.000000 0.380973 0.924586
vn 0.000000 0.380973 0.924586
s off
g pasted__pPlane8 group9
usemtl pasted__lambert2SG5
f 1/1/1 2/2/2 4/4/3 3/3/4
f 5/5/5 7/6/6 6/7/7
g default
v -0.482330 2.564523 1.688336
v -0.847459 2.564523 1.688336
v -0.482330 2.489726 1.719156
v -0.847459 2.489726 1.719156
v -0.842815 2.601862 1.672951
v -0.842815 2.452387 1.734542
v -1.092927 2.527128 1.703745
vt 0.079951 0.071286
vt 0.543828 0.071286
vt 0.079951 0.659985
vt 0.543828 0.659985
vt 0.079951 0.071286
vt 0.543828 0.365621
vt 0.079951 0.659985
vn 0.000000 0.380973 0.924586
vn 0.000000 0.380973 0.924586
vn 0.000000 0.380973 0.924586
vn 0.000000 0.380973 0.924586
vn 0.000000 0.380973 0.924586
vn 0.000000 0.380973 0.924586
vn 0.000000 0.380973 0.924586
s off
g pasted__pasted__pPlane8 pasted__group9 group10
usemtl pasted__pasted__lambert2SG5
f 8/8/8 9/9/9 11/11/10 10/10/11
f 12/12/12 14/13/13 13/14/14
g default
v 0.376265 2.503600 1.713439
v 0.741395 2.503600 1.713439
v 0.376265 2.578396 1.682619
v 0.741395 2.578396 1.682619
v 0.736750 2.466260 1.728824
v 0.736750 2.615735 1.667234
v 0.986862 2.540994 1.698031
vt 0.079951 0.071286
vt 0.543828 0.071286
vt 0.079951 0.659985
vt 0.543828 0.659985
vt 0.079951 0.071286
vt 0.543828 0.365621
vt 0.079951 0.659985
vn 0.000000 0.380974 0.924586
vn 0.000000 0.380974 0.924586
vn 0.000000 0.380974 0.924586
vn 0.000000 0.380974 0.924586
vn 0.000000 0.380974 0.924586
vn 0.000000 0.380974 0.924586
vn 0.000000 0.380974 0.924586
s off
g group10 pasted__pPlane8
usemtl pasted__lambert2SG6
f 15/15/15 16/16/16 18/18/17 17/17/18
f 19/19/19 21/20/20 20/21/21
g default
v 0.376265 0.567345 2.616630
v 0.741395 0.567345 2.616630
v 0.376265 0.642142 2.585810
v 0.741395 0.642142 2.585810
v 0.736750 0.530006 2.632015
v 0.736750 0.679481 2.570424
v 0.986862 0.604740 2.601221
vt 0.079951 0.071286
vt 0.543828 0.071286
vt 0.079951 0.659985
vt 0.543828 0.659985
vt 0.079951 0.071286
vt 0.543828 0.365621
vt 0.079951 0.659985
vn 0.000000 0.380974 0.924586
vn 0.000000 0.380974 0.924586
vn 0.000000 0.380974 0.924586
vn 0.000000 0.380974 0.924586
vn 0.000000 0.380974 0.924586
vn 0.000000 0.380974 0.924586
vn 0.000000 0.380974 0.924586
s off
g pPlane8
usemtl lambert2SG
f 22/22/22 23/23/23 25/25/24 24/24/25
f 26/26/26 28/27/27 27/28/28
