# This file uses centimeters as units for non-parametric coordinates.

mtllib Needle.mtl
g default
v 0.230195 0.039791 -0.029177
v 0.230195 0.019302 -0.048972
v 0.230195 -0.008039 -0.056978
v 0.230195 -0.035968 -0.051361
v 0.230195 -0.058088 -0.033408
v 0.230195 -0.069331 -0.007231
v 0.230195 -0.067122 0.021172
v 0.230195 -0.051966 0.045294
v 0.230195 -0.027335 0.059611
v 0.230195 0.001127 0.060841
v 0.230195 0.026900 0.048703
v 0.230195 0.044081 0.025978
v 0.230195 0.048733 -0.002128
v 0.208934 0.087261 -0.059002
v 0.208934 0.047475 -0.097441
v 0.208934 -0.005618 -0.112987
v 0.208934 -0.059854 -0.102080
v 0.208934 -0.102808 -0.067217
v 0.208934 -0.124641 -0.016386
v 0.208934 -0.120350 0.038770
v 0.208934 -0.090919 0.085613
v 0.208934 -0.043090 0.113414
v 0.208934 0.012180 0.115802
v 0.208934 0.062230 0.092232
v 0.208934 0.095593 0.048103
v 0.208934 0.104626 -0.006476
v 0.174873 0.129043 -0.085253
v 0.174873 0.072272 -0.140103
v 0.174873 -0.003487 -0.162286
v 0.174873 -0.080877 -0.146722
v 0.174873 -0.142170 -0.096975
v 0.174873 -0.173323 -0.024443
v 0.174873 -0.167201 0.054259
v 0.174873 -0.125205 0.121101
v 0.174873 -0.056957 0.160770
v 0.174873 0.021910 0.164179
v 0.174873 0.093326 0.130546
v 0.174873 0.140932 0.067577
v 0.174873 0.153822 -0.010304
v 0.129994 0.162710 -0.106405
v 0.129994 0.092252 -0.174477
v 0.129994 -0.001770 -0.202009
v 0.129994 -0.097817 -0.182692
v 0.129994 -0.173886 -0.120953
v 0.129994 -0.212549 -0.030935
v 0.129994 -0.204951 0.066739
v 0.129994 -0.152831 0.149695
v 0.129994 -0.068130 0.198927
v 0.129994 0.029749 0.203158
v 0.129994 0.118382 0.161417
v 0.129994 0.177465 0.083268
v 0.129994 0.193462 -0.013387
v 0.076903 0.186303 -0.121229
v 0.076903 0.106254 -0.198568
v 0.076903 -0.000567 -0.229847
v 0.076903 -0.109689 -0.207901
v 0.076903 -0.196112 -0.137757
v 0.076903 -0.240039 -0.035485
v 0.076903 -0.231407 0.075486
v 0.076903 -0.172192 0.169734
v 0.076903 -0.075960 0.225669
v 0.076903 0.035243 0.230475
v 0.076903 0.135941 0.183052
v 0.076903 0.203067 0.094264
v 0.076903 0.221242 -0.015548
v 0.018687 0.198453 -0.128863
v 0.018687 0.113465 -0.210973
v 0.018687 0.000052 -0.244182
v 0.018687 -0.115802 -0.220882
v 0.018687 -0.207558 -0.146411
v 0.018687 -0.254196 -0.037828
v 0.018687 -0.245030 0.079990
v 0.018687 -0.182162 0.180054
v 0.018687 -0.079992 0.239439
v 0.018687 0.038072 0.244542
v 0.018687 0.144984 0.194193
v 0.018687 0.216252 0.099927
v 0.018687 0.235548 -0.016661
v -0.041271 0.198453 -0.128863
v -0.041271 0.113465 -0.210973
v -0.041271 0.000052 -0.244182
v -0.041271 -0.115802 -0.220882
v -0.041271 -0.207558 -0.146411
v -0.041271 -0.254196 -0.037828
v -0.041271 -0.245030 0.079990
v -0.041271 -0.182162 0.180054
v -0.041271 -0.079992 0.239439
v -0.041271 0.038072 0.244542
v -0.041271 0.144984 0.194193
v -0.041271 0.216252 0.099927
v -0.041271 0.235548 -0.016661
v -0.099487 0.186303 -0.121229
v -0.099487 0.106254 -0.198568
v -0.099487 -0.000567 -0.229847
v -0.099487 -0.109689 -0.207901
v -0.099487 -0.196112 -0.137757
v -0.099487 -0.240039 -0.035485
v -0.099487 -0.231407 0.075486
v -0.099487 -0.172192 0.169734
v -0.099487 -0.075960 0.225669
v -0.099487 0.035243 0.230475
v -0.099487 0.135941 0.183052
v -0.099487 0.203067 0.094264
v -0.099487 0.221242 -0.015548
v -0.152578 0.162710 -0.106405
v -0.152578 0.092252 -0.174477
v -0.152578 -0.001770 -0.202009
v -0.152578 -0.097817 -0.182692
v -0.152578 -0.173885 -0.120953
v -0.152578 -0.212549 -0.030935
v -0.152578 -0.204951 0.066740
v -0.152578 -0.152831 0.149695
v -0.152578 -0.068130 0.198927
v -0.152578 0.029749 0.203158
v -0.152578 0.118382 0.161417
v -0.152578 0.177465 0.083268
v -0.152578 0.193462 -0.013387
v -0.197457 0.129043 -0.085253
v -0.197457 0.072272 -0.140103
v -0.197457 -0.003487 -0.162286
v -0.197457 -0.080877 -0.146722
v -0.197457 -0.142170 -0.096975
v -0.197457 -0.173323 -0.024443
v -0.197457 -0.167201 0.054259
v -0.197457 -0.125205 0.121101
v -0.197457 -0.056957 0.160770
v -0.197457 0.021910 0.164179
v -0.197457 0.093326 0.130546
v -0.197457 0.140932 0.067577
v -0.197457 0.153822 -0.010304
v -0.231517 0.087261 -0.059002
v -0.231517 0.047475 -0.097441
v -0.231517 -0.005618 -0.112987
v -0.231517 -0.059854 -0.102080
v -0.231517 -0.102808 -0.067217
v -0.231517 -0.124641 -0.016386
v -0.231517 -0.120350 0.038770
v -0.231517 -0.090919 0.085613
v -0.231517 -0.043090 0.113414
v -0.231517 0.012180 0.115802
v -0.231517 0.062230 0.092232
v -0.231517 0.095593 0.048103
v -0.231517 0.104626 -0.006476
v -0.252779 0.039791 -0.029177
v -0.252779 0.019302 -0.048972
v -0.252779 -0.008039 -0.056978
v -0.252779 -0.035968 -0.051361
v -0.252779 -0.058088 -0.033408
v -0.252779 -0.069331 -0.007231
v -0.252779 -0.067122 0.021172
v -0.252779 -0.051966 0.045295
v -0.252779 -0.027335 0.059611
v -0.252779 0.001127 0.060841
v -0.252779 0.026900 0.048703
v -0.252779 0.044081 0.025978
v -0.252779 0.048733 -0.002128
v 0.237422 -0.010609 0.002488
v -0.260006 -0.010609 0.002488
v 0.402197 0.089095 -0.060154
v 0.402197 0.048563 -0.099314
v 0.402197 -0.005524 -0.115152
v 0.402197 -0.060777 -0.104040
v 0.402197 -0.104536 -0.068523
v 0.402197 -0.126778 -0.016739
v 0.402197 -0.122407 0.039450
v 0.402197 -0.092424 0.087171
v 0.402197 -0.043699 0.115493
v 0.402197 0.012607 0.117926
v 0.402197 0.063595 0.093914
v 0.402197 0.097583 0.048958
v 0.402197 0.106786 -0.006644
v -3.945519 -0.010609 0.002488
vt 0.400432 0.440950
vt 0.415405 0.447143
vt 0.430378 0.453336
vt 0.445352 0.459528
vt 0.460325 0.465721
vt 0.475298 0.471914
vt 0.490272 0.478106
vt 0.505245 0.484299
vt 0.520218 0.490492
vt 0.535192 0.496684
vt 0.550165 0.502877
vt 0.565139 0.509070
vt 0.580112 0.515262
vt 0.595085 0.521455
vt 0.392801 0.458367
vt 0.407774 0.464560
vt 0.422748 0.470753
vt 0.437721 0.476945
vt 0.452694 0.483138
vt 0.467667 0.489331
vt 0.482641 0.495523
vt 0.497614 0.501716
vt 0.512588 0.507908
vt 0.527561 0.514101
vt 0.542535 0.520294
vt 0.557508 0.526487
vt 0.572481 0.532679
vt 0.587454 0.538872
vt 0.385170 0.475784
vt 0.400144 0.481977
vt 0.415117 0.488170
vt 0.430091 0.494362
vt 0.445064 0.500555
vt 0.460037 0.506748
vt 0.475010 0.512940
vt 0.489984 0.519133
vt 0.504957 0.525326
vt 0.519931 0.531518
vt 0.534904 0.537711
vt 0.549877 0.543904
vt 0.564851 0.550096
vt 0.579825 0.556289
vt 0.377540 0.493201
vt 0.392513 0.499394
vt 0.407486 0.505587
vt 0.422460 0.511779
vt 0.437433 0.517972
vt 0.452406 0.524164
vt 0.467380 0.530357
vt 0.482353 0.536550
vt 0.497327 0.542742
vt 0.512300 0.548935
vt 0.527273 0.555128
vt 0.542247 0.561320
vt 0.557220 0.567513
vt 0.572194 0.573706
vt 0.369909 0.510618
vt 0.384882 0.516811
vt 0.399856 0.523003
vt 0.414829 0.529196
vt 0.429802 0.535389
vt 0.444776 0.541581
vt 0.459749 0.547774
vt 0.474723 0.553967
vt 0.489696 0.560159
vt 0.504669 0.566352
vt 0.519643 0.572545
vt 0.534616 0.578737
vt 0.549589 0.584930
vt 0.564563 0.591123
vt 0.362278 0.528035
vt 0.377252 0.534228
vt 0.392225 0.540420
vt 0.407199 0.546613
vt 0.422172 0.552806
vt 0.437145 0.558998
vt 0.452119 0.565191
vt 0.467092 0.571384
vt 0.482065 0.577576
vt 0.497039 0.583769
vt 0.512012 0.589962
vt 0.526986 0.596154
vt 0.541959 0.602347
vt 0.556932 0.608540
vt 0.354648 0.545452
vt 0.369621 0.551645
vt 0.384595 0.557837
vt 0.399568 0.564030
vt 0.414541 0.570222
vt 0.429514 0.576415
vt 0.444488 0.582608
vt 0.459462 0.588801
vt 0.474435 0.594993
vt 0.489408 0.601186
vt 0.504382 0.607379
vt 0.519355 0.613571
vt 0.534328 0.619764
vt 0.549302 0.625957
vt 0.347017 0.562869
vt 0.361990 0.569061
vt 0.376964 0.575254
vt 0.391937 0.581447
vt 0.406911 0.587639
vt 0.421884 0.593832
vt 0.436857 0.600025
vt 0.451831 0.606217
vt 0.466804 0.612410
vt 0.481777 0.618602
vt 0.496751 0.624796
vt 0.511724 0.630988
vt 0.526698 0.637181
vt 0.541671 0.643373
vt 0.339387 0.580285
vt 0.354360 0.586478
vt 0.369333 0.592671
vt 0.384307 0.598864
vt 0.399280 0.605056
vt 0.414253 0.611249
vt 0.429227 0.617442
vt 0.444200 0.623634
vt 0.459174 0.629827
vt 0.474147 0.636020
vt 0.489120 0.642212
vt 0.504094 0.648405
vt 0.519067 0.654598
vt 0.534040 0.660790
vt 0.331756 0.597703
vt 0.346729 0.603895
vt 0.361703 0.610088
vt 0.376676 0.616280
vt 0.391650 0.622473
vt 0.406623 0.628666
vt 0.421596 0.634858
vt 0.436570 0.641051
vt 0.451543 0.647244
vt 0.466516 0.653436
vt 0.481490 0.659629
vt 0.496463 0.665822
vt 0.511436 0.672015
vt 0.526410 0.678207
vt 0.324125 0.615119
vt 0.339099 0.621312
vt 0.354072 0.627505
vt 0.369046 0.633697
vt 0.384019 0.639890
vt 0.398992 0.646083
vt 0.413966 0.652275
vt 0.428939 0.658468
vt 0.443912 0.664661
vt 0.458886 0.670853
vt 0.473859 0.677046
vt 0.488832 0.683239
vt 0.503806 0.689432
vt 0.518779 0.695624
vt 0.316495 0.632536
vt 0.331468 0.638729
vt 0.346442 0.644922
vt 0.361415 0.651114
vt 0.376388 0.657307
vt 0.391361 0.663500
vt 0.406335 0.669692
vt 0.421308 0.675885
vt 0.436282 0.682078
vt 0.451255 0.688270
vt 0.466228 0.694463
vt 0.481202 0.700656
vt 0.496175 0.706848
vt 0.511149 0.713041
vt 0.415549 0.426630
vt 0.430522 0.432823
vt 0.445496 0.439015
vt 0.460469 0.445208
vt 0.475442 0.451401
vt 0.490416 0.457593
vt 0.505389 0.463786
vt 0.520362 0.469979
vt 0.535336 0.476171
vt 0.550309 0.482364
vt 0.565282 0.488556
vt 0.580256 0.494749
vt 0.595229 0.500942
vt 0.316351 0.653050
vt 0.331324 0.659242
vt 0.346298 0.665435
vt 0.361271 0.671628
vt 0.376244 0.677820
vt 0.391218 0.684013
vt 0.406191 0.690206
vt 0.421164 0.696398
vt 0.436138 0.702591
vt 0.451111 0.708784
vt 0.466084 0.714976
vt 0.481058 0.721169
vt 0.496031 0.727361
vt 0.364258 0.123219
vt 0.385089 0.207731
vt 0.364258 0.292243
vt 0.306539 0.357394
vt 0.225154 0.388260
vt 0.138747 0.377768
vt 0.067114 0.328323
vt 0.026664 0.251252
vt 0.026664 0.164210
vt 0.067114 0.087139
vt 0.138747 0.037694
vt 0.225154 0.027202
vt 0.306539 0.058067
vt 0.033130 0.409955
vt 0.057950 0.409955
vt 0.194461 0.732618
vt 0.082770 0.409955
vt 0.107590 0.409955
vt 0.132411 0.409955
vt 0.157231 0.409955
vt 0.182051 0.409955
vt 0.206871 0.409955
vt 0.231691 0.409955
vt 0.256512 0.409955
vt 0.281332 0.409955
vt 0.306152 0.409955
vt 0.330972 0.409955
vt 0.355793 0.409955
vn 0.951074 0.261614 -0.164368
vn 0.951074 0.155262 -0.267119
vn 0.864545 0.252547 -0.434491
vn 0.864545 0.425537 -0.267359
vn 0.951074 0.013341 -0.308676
vn 0.864545 0.021701 -0.502087
vn 0.951074 -0.131635 -0.279519
vn 0.864545 -0.214117 -0.454661
vn 0.951074 -0.246456 -0.186328
vn 0.864545 -0.400882 -0.303077
vn 0.951074 -0.304817 -0.050451
vn 0.864545 -0.495811 -0.082062
vn 0.951074 -0.293348 0.096984
vn 0.864545 -0.477155 0.157752
vn 0.951074 -0.214676 0.222200
vn 0.864545 -0.349189 0.361428
vn 0.951074 -0.086825 0.296514
vn 0.864545 -0.141227 0.482304
vn 0.951074 0.060917 0.302899
vn 0.864545 0.099087 0.492691
vn 0.951074 0.194704 0.239894
vn 0.864545 0.316702 0.390208
vn 0.951074 0.283886 0.121932
vn 0.864545 0.461765 0.198333
vn 0.951074 0.308033 -0.023963
vn 0.864545 0.501042 -0.038977
vn 0.728180 0.344423 -0.592560
vn 0.728180 0.580348 -0.364624
vn 0.728180 0.029595 -0.684747
vn 0.728180 -0.292012 -0.620067
vn 0.728180 -0.546724 -0.413337
vn 0.728180 -0.676187 -0.111917
vn 0.728180 -0.650744 0.215143
vn 0.728180 -0.476224 0.492915
vn 0.728180 -0.192606 0.657767
vn 0.728180 0.135135 0.671932
vn 0.728180 0.431919 0.532166
vn 0.728180 0.629755 0.270487
vn 0.728180 0.683322 -0.053157
vn 0.550949 0.419376 -0.721511
vn 0.550949 0.706642 -0.443973
vn 0.550949 0.036036 -0.833760
vn 0.550949 -0.355560 -0.755005
vn 0.550949 -0.665701 -0.503287
vn 0.550949 -0.823338 -0.136272
vn 0.550949 -0.792358 0.261962
vn 0.550949 -0.579859 0.600183
vn 0.550949 -0.234521 0.800909
vn 0.550949 0.164543 0.818157
vn 0.550949 0.525913 0.647975
vn 0.550949 0.766801 0.329350
vn 0.550949 0.832025 -0.064726
vn 0.343175 0.472007 -0.812059
vn 0.343175 0.795324 -0.499691
vn 0.343175 0.040558 -0.938396
vn 0.343175 -0.400182 -0.849756
vn 0.343175 -0.749245 -0.566448
vn 0.343175 -0.926665 -0.153374
vn 0.343175 -0.891797 0.294837
vn 0.343175 -0.652629 0.675504
vn 0.343175 -0.263952 0.901421
vn 0.343175 0.185193 0.920834
vn 0.343175 0.591913 0.729294
vn 0.343175 0.863033 0.370682
vn 0.343175 0.936442 -0.072848
vn 0.116520 0.499101 -0.858674
vn 0.116520 0.840978 -0.528374
vn 0.116520 0.042886 -0.992262
vn 0.116520 -0.423153 -0.898535
vn 0.116520 -0.792253 -0.598964
vn 0.116520 -0.979858 -0.162178
vn 0.116520 -0.942989 0.311761
vn 0.116520 -0.690092 0.714280
vn 0.116520 -0.279104 0.953165
vn 0.116520 0.195824 0.973692
vn 0.116520 0.625890 0.771158
vn 0.116520 0.912573 0.391960
vn 0.116520 0.990197 -0.077030
vn -0.116520 0.499101 -0.858674
vn -0.116520 0.840978 -0.528374
vn -0.116520 0.042886 -0.992262
vn -0.116520 -0.423153 -0.898535
vn -0.116520 -0.792253 -0.598964
vn -0.116520 -0.979858 -0.162178
vn -0.116520 -0.942989 0.311761
vn -0.116520 -0.690092 0.714280
vn -0.116520 -0.279104 0.953165
vn -0.116520 0.195824 0.973692
vn -0.116520 0.625891 0.771158
vn -0.116520 0.912573 0.391960
vn -0.116520 0.990197 -0.077030
vn -0.343175 0.472007 -0.812060
vn -0.343175 0.795324 -0.499691
vn -0.343175 0.040558 -0.938396
vn -0.343175 -0.400182 -0.849756
vn -0.343175 -0.749245 -0.566448
vn -0.343175 -0.926665 -0.153374
vn -0.343175 -0.891797 0.294837
vn -0.343175 -0.652630 0.675504
vn -0.343175 -0.263952 0.901421
vn -0.343175 0.185193 0.920834
vn -0.343175 0.591913 0.729294
vn -0.343175 0.863033 0.370682
vn -0.343175 0.936442 -0.072849
vn -0.550949 0.419376 -0.721512
vn -0.550949 0.706642 -0.443973
vn -0.550949 0.036036 -0.833760
vn -0.550949 -0.355560 -0.755005
vn -0.550949 -0.665701 -0.503287
vn -0.550949 -0.823338 -0.136272
vn -0.550949 -0.792358 0.261962
vn -0.550949 -0.579859 0.600183
vn -0.550949 -0.234521 0.800909
vn -0.550949 0.164543 0.818157
vn -0.550949 0.525913 0.647975
vn -0.550949 0.766801 0.329350
vn -0.550949 0.832025 -0.064726
vn -0.728180 0.344423 -0.592560
vn -0.728180 0.580348 -0.364624
vn -0.728180 0.029595 -0.684747
vn -0.728180 -0.292012 -0.620067
vn -0.728180 -0.546724 -0.413337
vn -0.728180 -0.676187 -0.111917
vn -0.728180 -0.650744 0.215143
vn -0.728180 -0.476224 0.492915
vn -0.728180 -0.192606 0.657767
vn -0.728180 0.135135 0.671932
vn -0.728180 0.431919 0.532165
vn -0.728180 0.629755 0.270487
vn -0.728180 0.683322 -0.053157
vn -0.864545 0.252547 -0.434492
vn -0.864545 0.425537 -0.267359
vn -0.864545 0.021701 -0.502087
vn -0.864545 -0.214117 -0.454661
vn -0.864545 -0.400883 -0.303078
vn -0.864545 -0.495811 -0.082062
vn -0.864545 -0.477155 0.157752
vn -0.864545 -0.349189 0.361428
vn -0.864545 -0.141227 0.482304
vn -0.864545 0.099087 0.492691
vn -0.864545 0.316702 0.390208
vn -0.864545 0.461765 0.198333
vn -0.864545 0.501042 -0.038977
vn -0.951074 0.155262 -0.267119
vn -0.951074 0.261614 -0.164368
vn -0.951074 0.013341 -0.308676
vn -0.951074 -0.131636 -0.279519
vn -0.951074 -0.246457 -0.186328
vn -0.951074 -0.304817 -0.050451
vn -0.951074 -0.293348 0.096984
vn -0.951074 -0.214676 0.222200
vn -0.951074 -0.086824 0.296514
vn -0.951074 0.060917 0.302899
vn -0.951074 0.194704 0.239894
vn -0.951074 0.283886 0.121932
vn -0.951074 0.308034 -0.023963
vn 1.000000 0.000000 0.000000
vn -1.000000 -0.000000 0.000000
vn 1.000000 -0.000000 0.000000
vn 1.000000 -0.000000 0.000000
vn 1.000000 -0.000000 0.000000
vn 1.000000 -0.000000 0.000000
vn 1.000000 -0.000000 0.000000
vn 1.000000 -0.000000 0.000000
vn 1.000000 -0.000000 0.000000
vn 1.000000 -0.000000 0.000000
vn 1.000000 -0.000000 0.000000
vn 1.000000 -0.000000 0.000000
vn 1.000000 -0.000000 0.000000
vn 1.000000 -0.000000 0.000000
vn 1.000000 -0.000000 0.000000
vn -0.027073 0.846435 -0.531803
vn -0.027073 0.502340 -0.864246
vn -1.000000 0.000545 -0.000396
vn -0.027073 0.043165 -0.998701
vn -0.027073 -0.425899 -0.904366
vn -0.027073 -0.797395 -0.602851
vn -0.027073 -0.986217 -0.163230
vn -0.027073 -0.949108 0.313784
vn -0.027073 -0.694571 0.718915
vn -0.027073 -0.280915 0.959351
vn -0.027073 0.197094 0.980011
vn -0.027073 0.629952 0.776162
vn -0.027073 0.918495 0.394504
vn -0.027073 0.996622 -0.077530
s 1
g pSphere2
usemtl lambert6SG
f 1/1/1 2/2/2 15/16/3 14/15/4
f 2/2/2 3/3/5 16/17/6 15/16/3
f 3/3/5 4/4/7 17/18/8 16/17/6
f 4/4/7 5/5/9 18/19/10 17/18/8
f 5/5/9 6/6/11 19/20/12 18/19/10
f 6/6/11 7/7/13 20/21/14 19/20/12
f 7/7/13 8/8/15 21/22/16 20/21/14
f 8/8/15 9/9/17 22/23/18 21/22/16
f 9/9/17 10/10/19 23/24/20 22/23/18
f 10/10/19 11/11/21 24/25/22 23/24/20
f 11/11/21 12/12/23 25/26/24 24/25/22
f 12/12/23 13/13/25 26/27/26 25/26/24
f 13/13/25 1/14/1 14/28/4 26/27/26
f 14/15/4 15/16/3 28/30/27 27/29/28
f 15/16/3 16/17/6 29/31/29 28/30/27
f 16/17/6 17/18/8 30/32/30 29/31/29
f 17/18/8 18/19/10 31/33/31 30/32/30
f 18/19/10 19/20/12 32/34/32 31/33/31
f 19/20/12 20/21/14 33/35/33 32/34/32
f 20/21/14 21/22/16 34/36/34 33/35/33
f 21/22/16 22/23/18 35/37/35 34/36/34
f 22/23/18 23/24/20 36/38/36 35/37/35
f 23/24/20 24/25/22 37/39/37 36/38/36
f 24/25/22 25/26/24 38/40/38 37/39/37
f 25/26/24 26/27/26 39/41/39 38/40/38
f 26/27/26 14/28/4 27/42/28 39/41/39
f 27/29/28 28/30/27 41/44/40 40/43/41
f 28/30/27 29/31/29 42/45/42 41/44/40
f 29/31/29 30/32/30 43/46/43 42/45/42
f 30/32/30 31/33/31 44/47/44 43/46/43
f 31/33/31 32/34/32 45/48/45 44/47/44
f 32/34/32 33/35/33 46/49/46 45/48/45
f 33/35/33 34/36/34 47/50/47 46/49/46
f 34/36/34 35/37/35 48/51/48 47/50/47
f 35/37/35 36/38/36 49/52/49 48/51/48
f 36/38/36 37/39/37 50/53/50 49/52/49
f 37/39/37 38/40/38 51/54/51 50/53/50
f 38/40/38 39/41/39 52/55/52 51/54/51
f 39/41/39 27/42/28 40/56/41 52/55/52
f 40/43/41 41/44/40 54/58/53 53/57/54
f 41/44/40 42/45/42 55/59/55 54/58/53
f 42/45/42 43/46/43 56/60/56 55/59/55
f 43/46/43 44/47/44 57/61/57 56/60/56
f 44/47/44 45/48/45 58/62/58 57/61/57
f 45/48/45 46/49/46 59/63/59 58/62/58
f 46/49/46 47/50/47 60/64/60 59/63/59
f 47/50/47 48/51/48 61/65/61 60/64/60
f 48/51/48 49/52/49 62/66/62 61/65/61
f 49/52/49 50/53/50 63/67/63 62/66/62
f 50/53/50 51/54/51 64/68/64 63/67/63
f 51/54/51 52/55/52 65/69/65 64/68/64
f 52/55/52 40/56/41 53/70/54 65/69/65
f 53/57/54 54/58/53 67/72/66 66/71/67
f 54/58/53 55/59/55 68/73/68 67/72/66
f 55/59/55 56/60/56 69/74/69 68/73/68
f 56/60/56 57/61/57 70/75/70 69/74/69
f 57/61/57 58/62/58 71/76/71 70/75/70
f 58/62/58 59/63/59 72/77/72 71/76/71
f 59/63/59 60/64/60 73/78/73 72/77/72
f 60/64/60 61/65/61 74/79/74 73/78/73
f 61/65/61 62/66/62 75/80/75 74/79/74
f 62/66/62 63/67/63 76/81/76 75/80/75
f 63/67/63 64/68/64 77/82/77 76/81/76
f 64/68/64 65/69/65 78/83/78 77/82/77
f 65/69/65 53/70/54 66/84/67 78/83/78
f 66/71/67 67/72/66 80/86/79 79/85/80
f 67/72/66 68/73/68 81/87/81 80/86/79
f 68/73/68 69/74/69 82/88/82 81/87/81
f 69/74/69 70/75/70 83/89/83 82/88/82
f 70/75/70 71/76/71 84/90/84 83/89/83
f 71/76/71 72/77/72 85/91/85 84/90/84
f 72/77/72 73/78/73 86/92/86 85/91/85
f 73/78/73 74/79/74 87/93/87 86/92/86
f 74/79/74 75/80/75 88/94/88 87/93/87
f 75/80/75 76/81/76 89/95/89 88/94/88
f 76/81/76 77/82/77 90/96/90 89/95/89
f 77/82/77 78/83/78 91/97/91 90/96/90
f 78/83/78 66/84/67 79/98/80 91/97/91
f 79/85/80 80/86/79 93/100/92 92/99/93
f 80/86/79 81/87/81 94/101/94 93/100/92
f 81/87/81 82/88/82 95/102/95 94/101/94
f 82/88/82 83/89/83 96/103/96 95/102/95
f 83/89/83 84/90/84 97/104/97 96/103/96
f 84/90/84 85/91/85 98/105/98 97/104/97
f 85/91/85 86/92/86 99/106/99 98/105/98
f 86/92/86 87/93/87 100/107/100 99/106/99
f 87/93/87 88/94/88 101/108/101 100/107/100
f 88/94/88 89/95/89 102/109/102 101/108/101
f 89/95/89 90/96/90 103/110/103 102/109/102
f 90/96/90 91/97/91 104/111/104 103/110/103
f 91/97/91 79/98/80 92/112/93 104/111/104
f 92/99/93 93/100/92 106/114/105 105/113/106
f 93/100/92 94/101/94 107/115/107 106/114/105
f 94/101/94 95/102/95 108/116/108 107/115/107
f 95/102/95 96/103/96 109/117/109 108/116/108
f 96/103/96 97/104/97 110/118/110 109/117/109
f 97/104/97 98/105/98 111/119/111 110/118/110
f 98/105/98 99/106/99 112/120/112 111/119/111
f 99/106/99 100/107/100 113/121/113 112/120/112
f 100/107/100 101/108/101 114/122/114 113/121/113
f 101/108/101 102/109/102 115/123/115 114/122/114
f 102/109/102 103/110/103 116/124/116 115/123/115
f 103/110/103 104/111/104 117/125/117 116/124/116
f 104/111/104 92/112/93 105/126/106 117/125/117
f 105/113/106 106/114/105 119/128/118 118/127/119
f 106/114/105 107/115/107 120/129/120 119/128/118
f 107/115/107 108/116/108 121/130/121 120/129/120
f 108/116/108 109/117/109 122/131/122 121/130/121
f 109/117/109 110/118/110 123/132/123 122/131/122
f 110/118/110 111/119/111 124/133/124 123/132/123
f 111/119/111 112/120/112 125/134/125 124/133/124
f 112/120/112 113/121/113 126/135/126 125/134/125
f 113/121/113 114/122/114 127/136/127 126/135/126
f 114/122/114 115/123/115 128/137/128 127/136/127
f 115/123/115 116/124/116 129/138/129 128/137/128
f 116/124/116 117/125/117 130/139/130 129/138/129
f 117/125/117 105/126/106 118/140/119 130/139/130
f 118/127/119 119/128/118 132/142/131 131/141/132
f 119/128/118 120/129/120 133/143/133 132/142/131
f 120/129/120 121/130/121 134/144/134 133/143/133
f 121/130/121 122/131/122 135/145/135 134/144/134
f 122/131/122 123/132/123 136/146/136 135/145/135
f 123/132/123 124/133/124 137/147/137 136/146/136
f 124/133/124 125/134/125 138/148/138 137/147/137
f 125/134/125 126/135/126 139/149/139 138/148/138
f 126/135/126 127/136/127 140/150/140 139/149/139
f 127/136/127 128/137/128 141/151/141 140/150/140
f 128/137/128 129/138/129 142/152/142 141/151/141
f 129/138/129 130/139/130 143/153/143 142/152/142
f 130/139/130 118/140/119 131/154/132 143/153/143
f 131/141/132 132/142/131 145/156/144 144/155/145
f 132/142/131 133/143/133 146/157/146 145/156/144
f 133/143/133 134/144/134 147/158/147 146/157/146
f 134/144/134 135/145/135 148/159/148 147/158/147
f 135/145/135 136/146/136 149/160/149 148/159/148
f 136/146/136 137/147/137 150/161/150 149/160/149
f 137/147/137 138/148/138 151/162/151 150/161/150
f 138/148/138 139/149/139 152/163/152 151/162/151
f 139/149/139 140/150/140 153/164/153 152/163/152
f 140/150/140 141/151/141 154/165/154 153/164/153
f 141/151/141 142/152/142 155/166/155 154/165/154
f 142/152/142 143/153/143 156/167/156 155/166/155
f 143/153/143 131/154/132 144/168/145 156/167/156
f 2/2/2 1/1/1 157/169/157
f 3/3/5 2/2/2 157/170/157
f 4/4/7 3/3/5 157/171/157
f 5/5/9 4/4/7 157/172/157
f 6/6/11 5/5/9 157/173/157
f 7/7/13 6/6/11 157/174/157
f 8/8/15 7/7/13 157/175/157
f 9/9/17 8/8/15 157/176/157
f 10/10/19 9/9/17 157/177/157
f 11/11/21 10/10/19 157/178/157
f 12/12/23 11/11/21 157/179/157
f 13/13/25 12/12/23 157/180/157
f 1/14/1 13/13/25 157/181/157
f 144/155/145 145/156/144 158/182/158
f 145/156/144 146/157/146 158/183/158
f 146/157/146 147/158/147 158/184/158
f 147/158/147 148/159/148 158/185/158
f 148/159/148 149/160/149 158/186/158
f 149/160/149 150/161/150 158/187/158
f 150/161/150 151/162/151 158/188/158
f 151/162/151 152/163/152 158/189/158
f 152/163/152 153/164/153 158/190/158
f 153/164/153 154/165/154 158/191/158
f 154/165/154 155/166/155 158/192/158
f 155/166/155 156/167/156 158/193/158
f 156/167/156 144/168/145 158/194/158
s off
f 159/195/159 171/196/160 170/197/161 169/198/162 168/199/163 167/200/164 166/201/165 165/202/166 164/203/167 163/204/168 162/205/169 161/206/170 160/207/171
s 2
f 159/208/172 160/209/173 172/210/174
f 160/209/173 161/211/175 172/210/174
f 161/211/175 162/212/176 172/210/174
f 162/212/176 163/213/177 172/210/174
f 163/213/177 164/214/178 172/210/174
f 164/214/178 165/215/179 172/210/174
f 165/215/179 166/216/180 172/210/174
f 166/216/180 167/217/181 172/210/174
f 167/217/181 168/218/182 172/210/174
f 168/218/182 169/219/183 172/210/174
f 169/219/183 170/220/184 172/210/174
f 170/220/184 171/221/185 172/210/174
f 171/221/185 159/222/172 172/210/174
